<svg width="512" height="512" viewBox="0 0 512 512" fill="none" xmlns="http://www.w3.org/2000/svg">
<g clip-path="url(#clip0_1_43)">
<path d="M220.898 -1C268.21 -1 315.521 -1 364.267 -1C361.786 2.27227 359.317 5.38999 356.592 8.44284C354.223 11.1204 351.88 13.8079 349.618 16.5752C347.051 19.713 344.381 22.7544 341.7 25.7965C339.27 28.5603 336.914 31.3746 334.585 34.2228C332.433 36.7987 330.209 39.312 327.975 41.8192C327.335 42.5422 326.703 43.2715 326.078 44.0074C325.367 44.8241 324.631 45.6191 323.868 46.3881C320.114 50.4797 319.992 54.0775 320.019 59.4455C320.008 60.3072 319.995 61.1689 319.98 62.0306C319.947 64.3575 319.942 66.6836 319.944 69.0107C319.944 70.9613 319.931 72.9117 319.918 74.8623C319.889 79.47 319.884 84.0774 319.893 88.6852C319.901 93.4186 319.866 98.1504 319.81 102.884C319.764 106.964 319.746 111.044 319.752 115.125C319.754 117.555 319.746 119.983 319.709 122.413C319.064 134.535 319.064 134.535 324.25 144.959C325.494 146.119 326.785 147.165 328.113 148.235C329.088 149.357 330.041 150.497 330.957 151.666C332.992 154.145 335.061 156.594 337.152 159.027C339.722 162.02 342.248 165.045 344.753 168.092C346.327 169.984 347.932 171.848 349.541 173.712C351.953 176.509 354.276 179.362 356.553 182.268C358.968 185.346 361.49 188.271 364.155 191.143C366.585 193.814 368.843 196.624 371.124 199.42C374.389 203.396 377.692 207.335 381.045 211.239C382.84 213.331 384.608 215.442 386.357 217.573C388.481 220.157 390.66 222.686 392.863 225.204C395.349 228.049 397.745 230.941 400.07 233.915C402.834 237.446 405.738 240.831 408.712 244.191C411.153 246.952 413.52 249.762 415.854 252.613C417.44 254.532 419.057 256.423 420.68 258.312C423.249 261.303 425.773 264.326 428.277 267.369C429.881 269.3 431.511 271.208 433.147 273.112C435.671 276.053 438.161 279.019 440.624 282.011C445.494 287.918 450.388 293.803 455.38 299.61C457.601 302.197 459.772 304.821 461.938 307.453C463.542 309.384 465.172 311.292 466.807 313.196C469.376 316.187 471.9 319.21 474.404 322.254C476.009 324.184 477.638 326.092 479.274 327.996C481.843 330.987 484.367 334.01 486.871 337.054C488.476 338.984 490.105 340.892 491.741 342.797C494.309 345.785 496.831 348.806 499.333 351.849C500.963 353.809 502.623 355.742 504.286 357.674C506.948 360.768 509.521 363.915 512 367.155C509.459 370.722 506.611 373.915 503.624 377.121C501.65 379.285 499.806 381.536 497.955 383.803C495.155 387.173 492.237 390.443 489.342 393.733C485.04 398.634 480.791 403.58 476.558 408.539C474.473 410.979 472.377 413.409 470.275 415.834C469.965 416.191 469.656 416.548 469.337 416.916C467.745 418.751 466.152 420.584 464.558 422.415C461.697 425.703 458.854 428.997 456.094 432.369C453.878 435.071 451.556 437.652 449.188 440.224C447.795 441.774 446.465 443.36 445.146 444.972C442.899 447.717 440.593 450.401 438.25 453.066C437.907 453.456 437.563 453.847 437.209 454.25C436.512 455.043 435.814 455.836 435.116 456.629C431.246 461.034 427.394 465.451 423.68 469.986C421.464 472.688 419.142 475.269 416.774 477.841C415.381 479.391 414.051 480.977 412.732 482.589C410.485 485.334 408.179 488.019 405.836 490.683C405.493 491.073 405.15 491.463 404.797 491.865C404.1 492.658 403.402 493.451 402.705 494.243C401.042 496.135 399.386 498.033 397.733 499.933C397.449 500.257 397.166 500.582 396.874 500.916C396.594 501.238 396.314 501.56 396.026 501.892C395.601 502.36 395.601 502.36 395.168 502.837C394.129 504.056 394.129 504.056 393.356 505.593C391.987 507.843 390.667 509.788 388.013 510.577C384.281 511.156 380.498 510.996 376.733 510.924C375.455 510.922 374.177 510.923 372.898 510.927C369.436 510.929 365.976 510.892 362.514 510.849C358.893 510.811 355.273 510.807 351.652 510.8C344.8 510.781 337.948 510.73 331.095 510.668C323.293 510.599 315.49 510.565 307.687 510.534C291.639 510.47 275.592 510.361 259.545 510.224C262.26 506.17 262.26 506.17 263.813 504.308C264.136 503.919 264.458 503.53 264.79 503.13C265.129 502.724 265.468 502.317 265.817 501.899C268.436 498.738 271.03 495.563 273.57 492.34C276.027 489.227 278.526 486.15 281.05 483.09C284.216 479.252 287.328 475.376 290.413 471.475C292.142 469.288 293.898 467.123 295.655 464.959C296.877 463.442 298.085 461.915 299.291 460.386C302.207 456.691 305.181 453.052 308.205 449.443C311.276 445.777 314.249 442.06 317.163 438.27C320.01 434.596 323.005 431.035 325.965 427.449C328.801 424.008 331.586 420.529 334.353 417.034C337.142 413.513 339.961 410.023 342.835 406.569C345.569 403.261 348.256 399.915 350.95 396.575C352.075 395.181 353.204 393.791 354.332 392.4C356.536 389.677 358.708 386.93 360.88 384.182C363.537 380.833 366.255 377.533 368.995 374.25C370.892 371.962 372.627 369.648 374.241 367.155C373.825 366.632 373.41 366.109 372.982 365.57C372.401 364.839 371.821 364.109 371.241 363.378C370.931 362.989 370.622 362.599 370.303 362.198C368.468 359.887 366.633 357.576 364.797 355.265C364.52 354.915 364.242 354.566 363.955 354.205C363.673 353.85 363.391 353.494 363.1 353.128C362.817 352.771 362.533 352.414 362.241 352.047C358.813 347.73 358.813 347.73 357.956 346.651C357.384 345.931 356.812 345.211 356.24 344.491C354.818 342.701 353.397 340.91 351.978 339.118C349.363 335.818 346.74 332.525 344.083 329.257C341.108 325.6 338.189 321.908 335.32 318.168C332.346 314.291 329.286 310.496 326.165 306.733C323.384 303.366 320.716 299.922 318.062 296.457C315.756 293.457 313.387 290.517 310.971 287.604C307.844 283.834 304.831 279.993 301.855 276.106C299.549 273.107 297.18 270.167 294.764 267.254C291.637 263.484 288.624 259.643 285.648 255.756C283.342 252.757 280.973 249.817 278.557 246.904C275.43 243.134 272.417 239.292 269.441 235.406C267.135 232.406 264.766 229.466 262.35 226.553C259.223 222.783 256.21 218.942 253.234 215.056C250.928 212.056 248.559 209.116 246.143 206.203C243.018 202.435 240.007 198.597 237.032 194.712C234.379 191.26 231.642 187.884 228.846 184.545C228.229 183.803 227.622 183.053 227.025 182.296C225.884 180.876 225.884 180.876 224.481 179.515C219.172 173.682 219.506 167.995 219.627 160.443C219.628 159.126 219.626 157.809 219.622 156.492C219.618 152.922 219.648 149.353 219.685 145.784C219.718 142.008 219.719 138.232 219.724 134.456C219.738 127.271 219.782 120.086 219.835 112.901C219.893 104.865 219.917 96.8286 219.939 88.7921C219.967 78.9254 220.006 69.0587 220.06 59.1921C220.064 58.2935 220.064 58.2935 220.069 57.3768C220.181 37.9127 220.552 18.4636 220.898 -1Z" fill="#DD5538"/>
<path d="M90.6115 252.465C91.09 252.467 91.5686 252.469 92.0617 252.471C92.5664 252.47 93.0711 252.47 93.5911 252.469C95.2955 252.468 96.9998 252.472 98.7041 252.475C99.9206 252.475 101.137 252.475 102.354 252.475C105.667 252.474 108.981 252.478 112.294 252.482C115.753 252.486 119.212 252.487 122.67 252.487C129.225 252.489 135.78 252.494 142.334 252.501C149.794 252.507 157.254 252.511 164.714 252.514C180.065 252.52 195.415 252.531 210.766 252.545C210.173 253.328 209.581 254.111 208.988 254.894C208.658 255.33 208.328 255.766 207.988 256.215C204.281 261.098 200.483 265.911 196.666 270.709C194.287 273.701 191.924 276.706 189.565 279.714C186.704 283.36 183.834 286.998 180.949 290.626C178.613 293.566 176.293 296.519 173.975 299.473C171.115 303.119 168.244 306.758 165.36 310.385C163.024 313.326 160.704 316.278 158.386 319.232C154.391 324.325 150.372 329.398 146.343 334.464C142.485 339.317 138.644 344.182 134.821 349.061C133.099 351.258 131.372 353.45 129.624 355.627C126.562 359.444 123.614 363.276 120.972 367.396C121.72 368.35 121.72 368.35 122.482 369.323C126.336 374.263 130.089 379.25 133.7 384.367C137.107 389.185 140.641 393.907 144.177 398.633C149.183 405.324 154.163 412.032 159.077 418.79C162.961 424.125 166.91 429.412 170.858 434.701C175.485 440.9 180.094 447.111 184.642 453.367C187.091 456.733 189.569 460.077 192.059 463.413C194.888 467.205 197.696 471.01 200.477 474.836C204.324 480.127 208.224 485.377 212.137 490.62C213.3 492.179 214.46 493.739 215.62 495.3C216.008 495.822 216.396 496.344 216.796 496.881C217.531 497.87 218.266 498.86 219.001 499.849C219.338 500.302 219.675 500.755 220.022 501.222C220.346 501.658 220.67 502.095 221.004 502.544C221.686 503.453 222.376 504.354 223.074 505.251C223.417 505.693 223.76 506.135 224.114 506.591C224.58 507.183 224.58 507.183 225.056 507.788C225.731 508.798 225.731 508.798 225.731 510.033C211.286 510.206 196.841 510.336 182.395 510.417C175.687 510.455 168.979 510.507 162.272 510.592C156.424 510.666 150.577 510.713 144.729 510.73C141.633 510.739 138.539 510.762 135.443 510.816C132.527 510.867 129.612 510.882 126.695 510.871C125.627 510.873 124.56 510.887 123.493 510.916C115.032 511.131 115.032 511.131 112.126 508.42C110.493 506.627 109.18 504.662 107.877 502.623C107.188 501.725 106.491 500.832 105.78 499.95C105.166 499.144 104.553 498.337 103.941 497.529C100.911 493.566 97.7987 489.683 94.6198 485.836C91.5752 482.15 88.5999 478.413 85.6398 474.66C84.2337 472.877 82.8247 471.097 81.4145 469.318C81.1331 468.963 80.8517 468.608 80.5617 468.242C78.4575 465.591 76.3344 462.956 74.2045 460.326C70.3548 455.571 66.5538 450.78 62.7593 445.982C59.5272 441.897 56.2817 437.823 53.0032 433.774C48.8739 428.675 44.7972 423.535 40.7341 418.383C37.6788 414.515 34.5884 410.679 31.4512 406.875C28.4799 403.271 25.5822 399.623 22.731 395.925C18.4626 390.391 14.0692 384.954 9.66986 379.522C6.41728 375.503 3.20603 371.451 0 367.396C0.880385 365.515 1.92533 363.945 3.20066 362.304C3.59543 361.794 3.99021 361.283 4.39694 360.757C5.03703 359.936 5.03703 359.936 5.69005 359.098C6.59944 357.924 7.50881 356.749 8.41816 355.574C8.88438 354.974 9.35059 354.373 9.83093 353.754C11.9894 350.973 14.1416 348.187 16.2907 345.398C16.7039 344.862 17.117 344.326 17.5427 343.774C20.6495 339.734 23.6926 335.651 26.7211 331.553C29.5374 327.756 32.4461 324.038 35.3823 320.331C38.4311 316.47 41.3708 312.535 44.2955 308.581C46.7872 305.215 49.3237 301.892 51.9047 298.593C54.1707 295.695 56.4115 292.779 58.6543 289.864C59.0915 289.296 59.5287 288.727 59.9791 288.142C62.5627 284.781 65.1308 281.409 67.6839 278.026C70.2284 274.666 72.8118 271.335 75.3848 267.997C78.4341 264.038 81.462 260.063 84.4674 256.071C87.1783 252.475 87.1783 252.475 90.6115 252.465Z" fill="#DC5037"/>
</g>
<defs>
<clipPath id="clip0_1_43">
<rect width="512" height="512" fill="white"/>
</clipPath>
</defs>
</svg>
